<svg id="Layer_1" data-name="Layer 1" xmlns="http://www.w3.org/2000/svg" viewBox="0 0 600 600"><defs><style>.cls-1{fill:#707070;}</style></defs><line class="cls-1" x1="543.9" y1="543.8" x2="335.26" y2="335.16"/><line class="cls-1" x1="264.54" y1="264.44" x2="55.9" y2="55.8"/><path class="cls-1" d="M579.26,508.44a50,50,0,0,1-70.72,70.72L299.9,370.52,91.26,579.16a50,50,0,0,1-70.72-70.72L229.18,299.8,20.54,91.16A50,50,0,0,1,91.26,20.44L299.9,229.08,508.54,20.44a50,50,0,0,1,70.72,70.72L370.62,299.8Z"/><line class="cls-1" x1="543.9" y1="55.8" x2="335.26" y2="264.44"/><line class="cls-1" x1="264.54" y1="335.16" x2="55.9" y2="543.8"/></svg>