<svg id="Layer_1" data-name="Layer 1" xmlns="http://www.w3.org/2000/svg" xmlns:xlink="http://www.w3.org/1999/xlink" viewBox="0 0 600 300"><defs><style>.cls-1{fill:url(#radial-gradient);}.cls-2{fill:url(#radial-gradient-2);}</style><radialGradient id="radial-gradient" cx="310.66" cy="250.6" r="441.36" gradientUnits="userSpaceOnUse"><stop offset="0" stop-color="#008fe4"/><stop offset="0.5" stop-color="#0084d1"/><stop offset="1" stop-color="#007ac0"/></radialGradient><radialGradient id="radial-gradient-2" cx="123.68" cy="247.92" r="302.27" xlink:href="#radial-gradient"/></defs><path class="cls-1" d="M572.55,128.54a28.69,28.69,0,0,0-6.67,5.69l-.11.12h0l-.07.07-.21.24-.23.24,0,.06a.25.25,0,0,0-.08.07l0,0,0,0c-.15.11-.74.59-1.11.89L562.49,137a61.29,61.29,0,0,1-10.13,5.35c-7.16,3-15.28,5-23.09,4.32a18.45,18.45,0,0,1-7.82-2.43c-3.51-2-6.25-5.16-8.87-8.86l-.74-1h0a33,33,0,0,0-7-4.43,19.15,19.15,0,0,0-9.64-1.91c-13.63,1.06-23.49,9.67-30.1,18.48a78.82,78.82,0,0,0-10.62,19.65c-2.14,6.05-4.29,10.82-6.39,15.42-4,8.87-7.11,16.31-7.85,25.53h0c-.91,2.74-1.7,5.11-2.22,6.6a47.11,47.11,0,0,1-10.22,17c-7,7.82-15.71,12.17-19.14,11.21-3.88-1.1-7.38-6.24-6.69-9.82L434.1,66.35c1.44-7.44-2.41-14.88-8.6-16.61s-12.38,2.89-13.82,10.33L389,177.1a15,15,0,0,0-2.29,4.47c-.06.22-6.88,21.63-9,27.87a48.2,48.2,0,0,1-10.21,17.25c-7,7.95-15.72,12.4-19.14,11.4-3.89-1.11-7.39-6.35-6.69-10L373.77,59.5c1.44-7.57-2.41-15.14-8.6-16.9s-12.38,2.94-13.82,10.51L321.46,209.82a93.76,93.76,0,0,1-10.11,21c-6.84,10.1-16.47,16.7-25.77,17.67s-19.13-5-20.87-12.71A91.4,91.4,0,0,1,262.53,218a93.8,93.8,0,0,0,46.23-69.33,18.43,18.43,0,0,0-31.2-15.36c-1.45,1.42-2.84,2.87-4.2,4.37a9.71,9.71,0,0,0-1.6-.74q-4.27-1.49-8.22-2.91c-13.38-4.79-24.94-8.93-35.76-8.4-12.86.64-22.87,7.46-31.49,21.47a63.22,63.22,0,0,0-5.21,11,106.11,106.11,0,0,0-7.59-11.88,9.53,9.53,0,0,0-15.31,11.34c6.82,9.2,11.89,20.18,15.58,31.34-.89,6.09-1.45,11.43-1.77,15.09-.77,9-2.8,39.33,3.69,53.08,3.12,6.6,7.69,8.53,11,9a10.52,10.52,0,0,0,1.48.1,11.45,11.45,0,0,0,9.81-5.89c5.25-8.87,3.77-31.77.92-48.67a200.43,200.43,0,0,0-5.61-24c2.27-13.44,5.58-24.58,9.26-30.55,10.21-16.6,17.67-14.76,44.59-5.12l4.29,1.54c-15.9,25.43-21.87,57.22-15.28,86.51,3.58,15.92,19.89,27.68,37.42,27.68a36,36,0,0,0,4-.21c13-1.34,25.56-8.59,35.25-20.18.44.91.93,1.81,1.44,2.68,4.58,7.75,11.42,13.41,18.8,15.53a22.91,22.91,0,0,0,6.41.9c14.55,0,28-13,32.58-17.89a40.24,40.24,0,0,0,2.55,5c4.57,7.62,11.41,13.18,18.79,15.26a23.23,23.23,0,0,0,6.4.88c15.94,0,30.58-15.3,33.66-18.73,1.81-2,3.46-4,5-6.06a78,78,0,0,0,9.28,10.25,27.85,27.85,0,0,0,19.16,7.73,26,26,0,0,0,6.79-.89,20.88,20.88,0,0,0,5-2c38.91-21.83,55.57-60.73,42.48-99.21a76.54,76.54,0,0,0,18.4-7.93c9.41-5.51,20-13.48,25-23.38C575.55,127.46,573.9,127.8,572.55,128.54Zm-283,19.67a75.84,75.84,0,0,1-24.28,44.39A96.43,96.43,0,0,1,289.59,148.21ZM478,240.5h0a5.21,5.21,0,0,1-4.86-1.45A54.71,54.71,0,0,1,465.8,231a81.14,81.14,0,0,1-3.39-16.08c2.71-8.2,5.87-18,6.06-18.56a16.22,16.22,0,0,0,.62-7.32h0c.87-1.9,1.76-3.92,2.67-6.08,1.2-2.84,2.44-5.94,3.67-9.43,2-5.62,9.88-21.54,20.53-23.23a10.24,10.24,0,0,1,1.63,1.09h0a47.08,47.08,0,0,1,7.48,8,33.35,33.35,0,0,1,4.87,8.29C519.7,196,507.43,223.85,478,240.5Z"/><path class="cls-2" d="M284.5,77.63a11.91,11.91,0,0,0,15.14-18.38c-31.24-25.71-80-25.45-110.92.59A67.26,67.26,0,0,1,132,73.77,67.26,67.26,0,0,1,86.47,37.2a11.91,11.91,0,0,0-21.59,10,91.51,91.51,0,0,0,62,49.77,82.12,82.12,0,0,0,8.37,1.41c-.09,20.93-1.65,34.2-3.29,48.17-1.79,15.36-3.65,31.23-3.43,57.24.08,10.84-5.59,22.09-15.2,30.09S91.61,245.5,81,243.45s-20.56-9.82-26.52-20.81-7.07-23.55-3-33.58a11.9,11.9,0,1,0-22-9C22.55,196.88,24,216.53,33.5,234s25.12,29.43,43,32.85a57,57,0,0,0,10.74,1c14.5,0,29.12-5.44,41.33-15.63,15.26-12.71,23.92-30.42,23.77-48.59-.2-24.53,1.49-39,3.28-54.27A409.81,409.81,0,0,0,159,98a90.82,90.82,0,0,0,45-20C226.13,59.49,262.22,59.3,284.5,77.63Z"/></svg>