<svg id="Layer_1" data-name="Layer 1" xmlns="http://www.w3.org/2000/svg" viewBox="0 0 600 600"><defs><style>.cls-1{fill:#707070;}</style></defs><path class="cls-1" d="M75.42,176.13V422.78a29.83,29.83,0,0,0,29.83,29.84h218.2a29.82,29.82,0,0,1,29.83,29.83v1.09a29.82,29.82,0,0,1-29.83,29.83H44.37a29.83,29.83,0,0,1-29.83-29.83V116.46A29.83,29.83,0,0,1,44.37,86.63H323.45a29.82,29.82,0,0,1,29.83,29.83h0a29.83,29.83,0,0,1-29.83,29.84H105.25A29.83,29.83,0,0,0,75.42,176.13Z"/><path class="cls-1" d="M104.35,192.54V406.8a19.11,19.11,0,0,0,19.11,19.11H367.63a19.11,19.11,0,0,1,19.11,18.94l.17,19.83c.16,17.28,21.32,25.5,33.1,12.86L580.34,305.42a19.11,19.11,0,0,0-.73-26.78L417,121.94c-12.19-11.75-32.5-3-32.37,13.9l.12,15.73a19.11,19.11,0,0,1-18.9,19.25l-242.62,2.62A19.1,19.1,0,0,0,104.35,192.54Z"/></svg>